<?xml version="1.0" encoding="iso-8859-1"?>
<!-- Generator: Adobe Illustrator 16.0.0, SVG Export Plug-In . SVG Version: 6.00 Build 0)  -->
<!DOCTYPE svg PUBLIC "-//W3C//DTD SVG 1.1//EN" "http://www.w3.org/Graphics/SVG/1.1/DTD/svg11.dtd">
<svg version="1.1" id="Capa_1" xmlns="http://www.w3.org/2000/svg" xmlns:xlink="http://www.w3.org/1999/xlink" x="0px" y="0px"
	 width="39.006px" height="39.006px" viewBox="0 0 39.006 39.006" style="enable-background:new 0 0 39.006 39.006;"
	 xml:space="preserve">
<g>
	<path d="M23.804,18.203c-0.666,0.653-1.738,0.646-2.395-0.022l-4.623-4.705v23.272c0,1.246-1.011,2.258-2.258,2.258
		c-0.787,0-1.478-0.402-1.881-1.014c-0.404,0.609-1.095,1.014-1.882,1.014c-1.247,0-2.257-1.012-2.257-2.258v-12.52
		c-0.178,0.062-0.366,0.103-0.564,0.103c-0.935,0-1.693-0.759-1.693-1.692V11.633c0-0.935,0.758-1.692,1.693-1.692h3.649
		l0.639,0.852l-1.172,6.636l1.587,1.496l1.586-1.496l-1.171-6.636l0.639-0.852h3.649c0.454,0,0.889,0.183,1.208,0.506l5.267,5.363
		C24.481,16.476,24.472,17.548,23.804,18.203z M12.648,8.788c2.127,0,3.851-2.646,3.851-5.073C16.499,1.286,14.775,0,12.648,0
		C10.52,0,8.796,1.286,8.796,3.715C8.796,6.144,10.52,8.788,12.648,8.788z M32.755,21.764v12.78c0,0.229-0.188,0.417-0.418,0.417
		H19.558c-0.23,0-0.417-0.188-0.417-0.417v-12.78c0-0.229,0.187-0.417,0.417-0.417h12.779
		C32.567,21.347,32.755,21.531,32.755,21.764z M31.382,24.941c-0.406-0.403-1.062-0.403-1.469,0l-4.324,4.324l-2.08-2.08
		c-0.404-0.406-1.062-0.406-1.469,0c-0.406,0.404-0.406,1.063,0,1.467l2.812,2.816c0.405,0.404,1.063,0.405,1.469,0l5.059-5.059
		C31.788,26.006,31.788,25.35,31.382,24.941z"/>
</g>
<g>
</g>
<g>
</g>
<g>
</g>
<g>
</g>
<g>
</g>
<g>
</g>
<g>
</g>
<g>
</g>
<g>
</g>
<g>
</g>
<g>
</g>
<g>
</g>
<g>
</g>
<g>
</g>
<g>
</g>
</svg>
