<svg enable-background="new 0 0 100 100" height="100" viewBox="0 0 100 100" width="100" xmlns="http://www.w3.org/2000/svg"><g fill="#fff"><path d="m36 31h28c.8 0 1.3-.9.8-1.5l-3.3-5.1c-1-2-3.1-3.3-5.4-3.3h-12.2c-2.3 0-4.4 1.3-5.4 3.3l-3.3 5.1c-.5.6 0 1.5.8 1.5z"/><path d="m50 49c-4.4 0-8 3.6-8 8s3.6 8 8 8 8-3.6 8-8-3.6-8-8-8z"/><path d="m74 37h-48c-3.3 0-6 2.7-6 6v28c0 3.3 2.7 6 6 6h48c3.3 0 6-2.7 6-6v-28c0-3.3-2.7-6-6-6zm-24 34c-7.7 0-14-6.3-14-14s6.3-14 14-14 14 6.3 14 14-6.3 14-14 14z"/></g></svg>